# Blender v2.93.5 OBJ File: ''
# www.blender.org
mtllib pizza.mtl
o Cylinder
v 0.000000 -0.020500 -0.370000
v 0.002586 0.007635 -0.015960
v 0.114336 -0.020500 -0.351891
v 0.008549 0.007635 -0.015015
v 0.217481 -0.020500 -0.299336
v 0.013929 0.007635 -0.012274
v 0.299336 -0.020500 -0.217481
v 0.018198 0.007635 -0.008005
v 0.351891 -0.020500 -0.114336
v 0.020939 0.007635 -0.002626
v 0.370000 -0.020500 0.000000
v 0.021883 0.007635 0.003337
v 0.351891 -0.020500 0.114336
v 0.020939 0.007635 0.009300
v 0.299336 -0.020500 0.217481
v 0.018198 0.007635 0.014680
v 0.217481 -0.020500 0.299336
v 0.013929 0.007635 0.018949
v 0.114336 -0.020500 0.351891
v 0.008549 0.007635 0.021690
v -0.000000 -0.020500 0.370000
v 0.002586 0.007635 0.022634
v -0.114336 -0.020500 0.351891
v -0.003377 0.007635 0.021690
v -0.217481 -0.020500 0.299336
v -0.008757 0.007635 0.018949
v -0.299336 -0.020500 0.217480
v -0.013026 0.007635 0.014680
v -0.351891 -0.020500 0.114336
v -0.015767 0.007635 0.009301
v -0.370000 -0.020500 -0.000000
v -0.016711 0.007635 0.003337
v -0.351891 -0.020500 -0.114336
v -0.015767 0.007635 -0.002626
v -0.299336 -0.020500 -0.217480
v -0.013026 0.007635 -0.008005
v -0.217481 -0.020500 -0.299336
v -0.008757 0.007635 -0.012274
v -0.114336 -0.020500 -0.351891
v -0.003377 0.007635 -0.015015
v 0.114336 0.020500 -0.351891
v 0.000000 0.020500 -0.370000
v 0.217481 0.020500 -0.299336
v 0.299336 0.020500 -0.217481
v 0.351891 0.020500 -0.114336
v 0.370000 0.020500 0.000000
v 0.351891 0.020500 0.114336
v 0.299336 0.020500 0.217481
v 0.217481 0.020500 0.299336
v 0.114336 0.020500 0.351891
v -0.000000 0.020500 0.370000
v -0.114336 0.020500 0.351891
v -0.217481 0.020500 0.299336
v -0.299336 0.020500 0.217480
v -0.351891 0.020500 0.114336
v -0.370000 0.020500 -0.000000
v -0.351891 0.020500 -0.114336
v -0.299336 0.020500 -0.217480
v -0.217481 0.020500 -0.299336
v -0.114336 0.020500 -0.351891
v 0.108185 0.020500 -0.332959
v 0.000000 0.020500 -0.350094
v 0.205780 0.020500 -0.283232
v 0.283232 0.020500 -0.205780
v 0.332959 0.020500 -0.108185
v 0.350094 0.020500 0.000000
v 0.332959 0.020500 0.108185
v 0.283232 0.020500 0.205780
v 0.205780 0.020500 0.283232
v 0.108185 0.020500 0.332959
v -0.000000 0.020500 0.350094
v -0.108185 0.020500 0.332959
v -0.205780 0.020500 0.283232
v -0.283232 0.020500 0.205780
v -0.332959 0.020500 0.108185
v -0.350094 0.020500 -0.000000
v -0.332959 0.020500 -0.108185
v -0.283232 0.020500 -0.205780
v -0.205780 0.020500 -0.283232
v -0.108185 0.020500 -0.332959
v 0.101349 0.012171 -0.300624
v 0.002586 0.012171 -0.316267
v 0.190445 0.012171 -0.255228
v 0.261151 0.012171 -0.184521
v 0.306548 0.012171 -0.095426
v 0.322190 0.012171 0.003337
v 0.306547 0.012171 0.102100
v 0.261151 0.012171 0.191196
v 0.190445 0.012171 0.261903
v 0.101349 0.012171 0.307299
v 0.002586 0.012171 0.322941
v -0.096177 0.012171 0.307299
v -0.185273 0.012171 0.261903
v -0.255979 0.012171 0.191196
v -0.301376 0.012171 0.102101
v -0.317018 0.012171 0.003337
v -0.301376 0.012171 -0.095426
v -0.255979 0.012171 -0.184521
v -0.185273 0.012171 -0.255228
v -0.096177 0.012171 -0.300624
v 0.094966 0.015841 -0.280978
v 0.002586 0.015841 -0.295610
v 0.178303 0.015841 -0.238516
v 0.244439 0.015841 -0.172379
v 0.286901 0.015841 -0.089042
v 0.301533 0.015841 0.003337
v 0.286901 0.015841 0.095717
v 0.244439 0.015841 0.179054
v 0.178303 0.015841 0.245191
v 0.094966 0.015841 0.287653
v 0.002586 0.015841 0.302284
v -0.089794 0.015841 0.287653
v -0.173131 0.015841 0.245191
v -0.239267 0.015841 0.179054
v -0.281729 0.015841 0.095717
v -0.296361 0.015841 0.003337
v -0.281729 0.015841 -0.089042
v -0.239267 0.015841 -0.172379
v -0.173131 0.015841 -0.238516
v -0.089794 0.015841 -0.280978
vt 1.000000 0.500000
vt 1.000000 1.000000
vt 0.950000 1.000000
vt 0.950000 0.500000
vt 0.900000 1.000000
vt 0.900000 0.500000
vt 0.850000 1.000000
vt 0.850000 0.500000
vt 0.800000 1.000000
vt 0.800000 0.500000
vt 0.750000 1.000000
vt 0.750000 0.500000
vt 0.700000 1.000000
vt 0.700000 0.500000
vt 0.650000 1.000000
vt 0.650000 0.500000
vt 0.600000 1.000000
vt 0.600000 0.500000
vt 0.550000 1.000000
vt 0.550000 0.500000
vt 0.500000 1.000000
vt 0.500000 0.500000
vt 0.450000 1.000000
vt 0.450000 0.500000
vt 0.400000 1.000000
vt 0.400000 0.500000
vt 0.350000 1.000000
vt 0.350000 0.500000
vt 0.300000 1.000000
vt 0.300000 0.500000
vt 0.250000 1.000000
vt 0.250000 0.500000
vt 0.200000 1.000000
vt 0.200000 0.500000
vt 0.150000 1.000000
vt 0.150000 0.500000
vt 0.100000 1.000000
vt 0.100000 0.500000
vt 0.050000 1.000000
vt 0.050000 0.500000
vt -0.000000 1.000000
vt -0.000000 0.500000
vt 0.750000 0.490000
vt 0.824164 0.478254
vt 0.891068 0.444164
vt 0.944164 0.391068
vt 0.978254 0.324164
vt 0.990000 0.250000
vt 0.978254 0.175836
vt 0.944164 0.108932
vt 0.891068 0.055836
vt 0.824164 0.021746
vt 0.750000 0.010000
vt 0.675836 0.021746
vt 0.608932 0.055836
vt 0.555836 0.108932
vt 0.521746 0.175836
vt 0.510000 0.250000
vt 0.521746 0.324164
vt 0.555836 0.391068
vt 0.608932 0.444164
vt 0.675836 0.478254
vt 0.250000 0.477088
vt 0.320174 0.465974
vt 0.324164 0.478254
vt 0.250000 0.490000
vt 0.383479 0.433718
vt 0.391068 0.444164
vt 0.433718 0.383479
vt 0.444164 0.391068
vt 0.465974 0.320174
vt 0.478254 0.324164
vt 0.477088 0.250000
vt 0.490000 0.250000
vt 0.465974 0.179826
vt 0.478254 0.175836
vt 0.433718 0.116521
vt 0.444164 0.108932
vt 0.383479 0.066282
vt 0.391068 0.055836
vt 0.320174 0.034026
vt 0.324164 0.021746
vt 0.250000 0.022912
vt 0.250000 0.010000
vt 0.179826 0.034026
vt 0.175836 0.021746
vt 0.116521 0.066282
vt 0.108932 0.055836
vt 0.066282 0.116521
vt 0.055836 0.108932
vt 0.034026 0.179826
vt 0.021746 0.175836
vt 0.022912 0.250000
vt 0.010000 0.250000
vt 0.034026 0.320174
vt 0.021746 0.324164
vt 0.066282 0.383479
vt 0.055836 0.391068
vt 0.116521 0.433718
vt 0.108932 0.444164
vt 0.179826 0.465974
vt 0.175836 0.478254
vt 0.250000 0.457311
vt 0.314062 0.447164
vt 0.371854 0.417718
vt 0.417718 0.371854
vt 0.447164 0.314063
vt 0.457311 0.250000
vt 0.447164 0.185937
vt 0.417718 0.128146
vt 0.371854 0.082282
vt 0.314063 0.052836
vt 0.250000 0.042689
vt 0.185937 0.052836
vt 0.128146 0.082282
vt 0.082282 0.128146
vt 0.052836 0.185937
vt 0.042689 0.250000
vt 0.052836 0.314062
vt 0.082282 0.371854
vt 0.128146 0.417718
vt 0.185937 0.447164
vt 0.250000 0.443911
vt 0.309922 0.434421
vt 0.363978 0.406878
vt 0.406878 0.363978
vt 0.434421 0.309922
vt 0.443912 0.250000
vt 0.434421 0.190078
vt 0.406878 0.136022
vt 0.363978 0.093122
vt 0.309922 0.065579
vt 0.250000 0.056088
vt 0.190078 0.065579
vt 0.136022 0.093122
vt 0.093122 0.136022
vt 0.065579 0.190078
vt 0.056088 0.250000
vt 0.065579 0.309922
vt 0.093122 0.363978
vt 0.136022 0.406878
vt 0.190078 0.434421
vt 0.253868 0.261904
vt 0.250000 0.262517
vt 0.246132 0.261904
vt 0.242643 0.260126
vt 0.239873 0.257357
vt 0.238096 0.253868
vt 0.237483 0.250000
vt 0.238096 0.246132
vt 0.239874 0.242643
vt 0.242643 0.239873
vt 0.246132 0.238095
vt 0.250000 0.237483
vt 0.253868 0.238096
vt 0.257357 0.239873
vt 0.260126 0.242643
vt 0.261904 0.246132
vt 0.262517 0.250000
vt 0.261904 0.253868
vt 0.260126 0.257357
vt 0.257357 0.260126
vn 0.1564 0.0000 -0.9877
vn 0.4540 0.0000 -0.8910
vn 0.7071 0.0000 -0.7071
vn 0.8910 0.0000 -0.4540
vn 0.9877 0.0000 -0.1564
vn 0.9877 0.0000 0.1564
vn 0.8910 0.0000 0.4540
vn 0.7071 0.0000 0.7071
vn 0.4540 0.0000 0.8910
vn 0.1564 0.0000 0.9877
vn -0.1564 0.0000 0.9877
vn -0.4540 0.0000 0.8910
vn -0.7071 0.0000 0.7071
vn -0.8910 0.0000 0.4540
vn -0.9877 0.0000 0.1564
vn -0.9877 0.0000 -0.1564
vn -0.8910 0.0000 -0.4540
vn -0.7071 0.0000 -0.7071
vn -0.4540 0.0000 -0.8910
vn -0.1564 0.0000 -0.9877
vn 0.0000 -1.0000 -0.0000
vn 0.0000 1.0000 0.0000
vn -0.0383 0.9696 0.2417
vn -0.1146 0.9676 0.2250
vn -0.1855 0.9650 0.1855
vn -0.2434 0.9620 0.1240
vn -0.2808 0.9587 0.0445
vn -0.2908 0.9557 -0.0461
vn -0.2691 0.9533 -0.1371
vn -0.2163 0.9521 -0.2163
vn -0.1387 0.9522 -0.2721
vn -0.0470 0.9537 -0.2970
vn 0.0458 0.9562 -0.2890
vn 0.1281 0.9594 -0.2514
vn 0.1916 0.9626 -0.1916
vn 0.2319 0.9655 -0.1181
vn 0.2477 0.9680 -0.0392
vn 0.2404 0.9699 0.0381
vn 0.2124 0.9712 0.1082
vn 0.1668 0.9718 0.1668
vn 0.1072 0.9717 0.2105
vn 0.0374 0.9710 0.2362
vn 0.0277 0.9842 -0.1748
vn 0.0804 0.9842 -0.1577
vn 0.1252 0.9842 -0.1252
vn 0.1577 0.9842 -0.0804
vn 0.1748 0.9842 -0.0277
vn 0.1748 0.9842 0.0277
vn 0.1577 0.9842 0.0804
vn 0.1252 0.9842 0.1252
vn 0.0804 0.9842 0.1577
vn 0.0277 0.9842 0.1748
vn -0.0277 0.9842 0.1748
vn -0.0804 0.9842 0.1577
vn -0.1252 0.9842 0.1252
vn -0.1577 0.9842 0.0804
vn -0.1748 0.9842 0.0277
vn -0.1748 0.9842 -0.0277
vn -0.1577 0.9842 -0.0804
vn -0.1252 0.9842 -0.1252
vn -0.0804 0.9842 -0.1577
vn -0.0277 0.9842 -0.1748
vn -0.0046 0.9996 0.0293
vn -0.0135 0.9996 0.0265
vn -0.0210 0.9996 0.0210
vn -0.0265 0.9996 0.0135
vn -0.0293 0.9996 0.0046
vn -0.0293 0.9996 -0.0046
vn -0.0265 0.9996 -0.0135
vn -0.0210 0.9996 -0.0210
vn -0.0135 0.9996 -0.0265
vn -0.0046 0.9996 -0.0293
vn 0.0046 0.9996 -0.0293
vn 0.0135 0.9996 -0.0265
vn 0.0210 0.9996 -0.0210
vn 0.0265 0.9996 -0.0135
vn 0.0293 0.9996 -0.0046
vn 0.0293 0.9996 0.0046
vn 0.0265 0.9996 0.0135
vn 0.0210 0.9996 0.0210
vn 0.0135 0.9996 0.0265
vn 0.0046 0.9996 0.0293
usemtl PizzaTeig
s off
f 1/1/1 42/2/1 41/3/1 3/4/1
f 3/4/2 41/3/2 43/5/2 5/6/2
f 5/6/3 43/5/3 44/7/3 7/8/3
f 7/8/4 44/7/4 45/9/4 9/10/4
f 9/10/5 45/9/5 46/11/5 11/12/5
f 11/12/6 46/11/6 47/13/6 13/14/6
f 13/14/7 47/13/7 48/15/7 15/16/7
f 15/16/8 48/15/8 49/17/8 17/18/8
f 17/18/9 49/17/9 50/19/9 19/20/9
f 19/20/10 50/19/10 51/21/10 21/22/10
f 21/22/11 51/21/11 52/23/11 23/24/11
f 23/24/12 52/23/12 53/25/12 25/26/12
f 25/26/13 53/25/13 54/27/13 27/28/13
f 27/28/14 54/27/14 55/29/14 29/30/14
f 29/30/15 55/29/15 56/31/15 31/32/15
f 31/32/16 56/31/16 57/33/16 33/34/16
f 33/34/17 57/33/17 58/35/17 35/36/17
f 35/36/18 58/35/18 59/37/18 37/38/18
f 37/38/19 59/37/19 60/39/19 39/40/19
f 39/40/20 60/39/20 42/41/20 1/42/20
f 1/43/21 3/44/21 5/45/21 7/46/21 9/47/21 11/48/21 13/49/21 15/50/21 17/51/21 19/52/21 21/53/21 23/54/21 25/55/21 27/56/21 29/57/21 31/58/21 33/59/21 35/60/21 37/61/21 39/62/21
f 62/63/22 61/64/22 41/65/22 42/66/22
f 61/64/22 63/67/22 43/68/22 41/65/22
f 63/67/22 64/69/22 44/70/22 43/68/22
f 64/69/22 65/71/22 45/72/22 44/70/22
f 65/71/22 66/73/22 46/74/22 45/72/22
f 66/73/22 67/75/22 47/76/22 46/74/22
f 67/75/22 68/77/22 48/78/22 47/76/22
f 68/77/22 69/79/22 49/80/22 48/78/22
f 69/79/22 70/81/22 50/82/22 49/80/22
f 70/81/22 71/83/22 51/84/22 50/82/22
f 71/83/22 72/85/22 52/86/22 51/84/22
f 72/85/22 73/87/22 53/88/22 52/86/22
f 73/87/22 74/89/22 54/90/22 53/88/22
f 74/89/22 75/91/22 55/92/22 54/90/22
f 75/91/22 76/93/22 56/94/22 55/92/22
f 76/93/22 77/95/22 57/96/22 56/94/22
f 77/95/22 78/97/22 58/98/22 57/96/22
f 78/97/22 79/99/22 59/100/22 58/98/22
f 79/99/22 80/101/22 60/102/22 59/100/22
f 80/101/22 62/63/22 42/66/22 60/102/22
f 82/103/23 81/104/23 61/64/23 62/63/23
f 81/104/24 83/105/24 63/67/24 61/64/24
f 83/105/25 84/106/25 64/69/25 63/67/25
f 84/106/26 85/107/26 65/71/26 64/69/26
f 85/107/27 86/108/27 66/73/27 65/71/27
f 86/108/28 87/109/28 67/75/28 66/73/28
f 87/109/29 88/110/29 68/77/29 67/75/29
f 88/110/30 89/111/30 69/79/30 68/77/30
f 89/111/31 90/112/31 70/81/31 69/79/31
f 90/112/32 91/113/32 71/83/32 70/81/32
f 91/113/33 92/114/33 72/85/33 71/83/33
f 92/114/34 93/115/34 73/87/34 72/85/34
f 93/115/35 94/116/35 74/89/35 73/87/35
f 94/116/36 95/117/36 75/91/36 74/89/36
f 95/117/37 96/118/37 76/93/37 75/91/37
f 96/118/38 97/119/38 77/95/38 76/93/38
f 97/119/39 98/120/39 78/97/39 77/95/39
f 98/120/40 99/121/40 79/99/40 78/97/40
f 99/121/41 100/122/41 80/101/41 79/99/41
f 100/122/42 82/103/42 62/63/42 80/101/42
usemtl Sauce
f 102/123/43 101/124/43 81/104/43 82/103/43
f 101/124/44 103/125/44 83/105/44 81/104/44
f 103/125/45 104/126/45 84/106/45 83/105/45
f 104/126/46 105/127/46 85/107/46 84/106/46
f 105/127/47 106/128/47 86/108/47 85/107/47
f 106/128/48 107/129/48 87/109/48 86/108/48
f 107/129/49 108/130/49 88/110/49 87/109/49
f 108/130/50 109/131/50 89/111/50 88/110/50
f 109/131/51 110/132/51 90/112/51 89/111/51
f 110/132/52 111/133/52 91/113/52 90/112/52
f 111/133/53 112/134/53 92/114/53 91/113/53
f 112/134/54 113/135/54 93/115/54 92/114/54
f 113/135/55 114/136/55 94/116/55 93/115/55
f 114/136/56 115/137/56 95/117/56 94/116/56
f 115/137/57 116/138/57 96/118/57 95/117/57
f 116/138/58 117/139/58 97/119/58 96/118/58
f 117/139/59 118/140/59 98/120/59 97/119/59
f 118/140/60 119/141/60 99/121/60 98/120/60
f 119/141/61 120/142/61 100/122/61 99/121/61
f 120/142/62 102/123/62 82/103/62 100/122/62
usemtl Käse
f 4/143/22 2/144/22 40/145/22 38/146/22 36/147/22 34/148/22 32/149/22 30/150/22 28/151/22 26/152/22 24/153/22 22/154/22 20/155/22 18/156/22 16/157/22 14/158/22 12/159/22 10/160/22 8/161/22 6/162/22
f 2/144/63 4/143/63 101/124/63 102/123/63
f 4/143/64 6/162/64 103/125/64 101/124/64
f 6/162/65 8/161/65 104/126/65 103/125/65
f 8/161/66 10/160/66 105/127/66 104/126/66
f 10/160/67 12/159/67 106/128/67 105/127/67
f 12/159/68 14/158/68 107/129/68 106/128/68
f 14/158/69 16/157/69 108/130/69 107/129/69
f 16/157/70 18/156/70 109/131/70 108/130/70
f 18/156/71 20/155/71 110/132/71 109/131/71
f 20/155/72 22/154/72 111/133/72 110/132/72
f 22/154/73 24/153/73 112/134/73 111/133/73
f 24/153/74 26/152/74 113/135/74 112/134/74
f 26/152/75 28/151/75 114/136/75 113/135/75
f 28/151/76 30/150/76 115/137/76 114/136/76
f 30/150/77 32/149/77 116/138/77 115/137/77
f 32/149/78 34/148/78 117/139/78 116/138/78
f 34/148/79 36/147/79 118/140/79 117/139/79
f 36/147/80 38/146/80 119/141/80 118/140/80
f 38/146/81 40/145/81 120/142/81 119/141/81
f 40/145/82 2/144/82 102/123/82 120/142/82
