# Blender v2.93.5 OBJ File: ''
# www.blender.org
mtllib Salami.mtl
o Cylinder.001
v 0.000000 0.076420 -0.014247
v 0.000000 0.081337 -0.014247
v 0.004403 0.076420 -0.013550
v 0.004403 0.081337 -0.013550
v 0.008374 0.076420 -0.011526
v 0.008374 0.081337 -0.011526
v 0.011526 0.076420 -0.008374
v 0.011526 0.081337 -0.008374
v 0.013550 0.076420 -0.004403
v 0.013550 0.081337 -0.004403
v 0.014247 0.076420 -0.000000
v 0.014247 0.081337 -0.000000
v 0.013550 0.076420 0.004403
v 0.013550 0.081337 0.004403
v 0.011526 0.076420 0.008374
v 0.011526 0.081337 0.008374
v 0.008374 0.076420 0.011526
v 0.008374 0.081337 0.011526
v 0.004403 0.076420 0.013550
v 0.004403 0.081337 0.013550
v -0.000000 0.076420 0.014247
v -0.000000 0.081337 0.014247
v -0.004403 0.076420 0.013550
v -0.004403 0.081337 0.013550
v -0.008374 0.076420 0.011526
v -0.008374 0.081337 0.011526
v -0.011526 0.076420 0.008374
v -0.011526 0.081337 0.008374
v -0.013550 0.076420 0.004403
v -0.013550 0.081337 0.004403
v -0.014247 0.076420 -0.000000
v -0.014247 0.081337 -0.000000
v -0.013550 0.076420 -0.004403
v -0.013550 0.081337 -0.004403
v -0.011526 0.076420 -0.008374
v -0.011526 0.081337 -0.008374
v -0.008374 0.076420 -0.011526
v -0.008374 0.081337 -0.011526
v -0.004403 0.076420 -0.013550
v -0.004403 0.081337 -0.013550
v 0.000000 0.070249 -0.044372
v 0.013712 0.070249 -0.042201
v 0.013712 0.075166 -0.042201
v 0.000000 0.075166 -0.044372
v 0.026081 0.070249 -0.035898
v 0.026081 0.075166 -0.035898
v 0.035898 0.070249 -0.026081
v 0.035898 0.075166 -0.026081
v 0.042201 0.070249 -0.013712
v 0.042201 0.075166 -0.013712
v 0.044372 0.070249 0.000000
v 0.044372 0.075166 0.000000
v 0.042201 0.070249 0.013712
v 0.042201 0.075166 0.013712
v 0.035898 0.070249 0.026081
v 0.035898 0.075166 0.026081
v 0.026081 0.070249 0.035898
v 0.026081 0.075166 0.035898
v 0.013712 0.070249 0.042201
v 0.013712 0.075166 0.042201
v -0.000000 0.070249 0.044372
v -0.000000 0.075166 0.044372
v -0.013712 0.070249 0.042201
v -0.013712 0.075166 0.042201
v -0.026081 0.070249 0.035898
v -0.026081 0.075166 0.035898
v -0.035898 0.070249 0.026081
v -0.035898 0.075166 0.026081
v -0.042201 0.070249 0.013712
v -0.042201 0.075166 0.013712
v -0.044372 0.070249 -0.000000
v -0.044372 0.075166 -0.000000
v -0.042201 0.070249 -0.013712
v -0.042201 0.075166 -0.013712
v -0.035898 0.070249 -0.026081
v -0.035898 0.075166 -0.026081
v -0.026081 0.070249 -0.035898
v -0.026081 0.075166 -0.035898
v -0.013712 0.070249 -0.042201
v -0.013712 0.075166 -0.042201
v 0.000000 0.073148 -0.034741
v 0.010735 0.073148 -0.033040
v 0.010735 0.078065 -0.033040
v 0.000000 0.078065 -0.034741
v 0.020420 0.073148 -0.028106
v 0.020420 0.078065 -0.028106
v 0.028106 0.073148 -0.020420
v 0.028106 0.078065 -0.020420
v 0.033040 0.073148 -0.010735
v 0.033040 0.078065 -0.010735
v 0.034741 0.073148 0.000000
v 0.034741 0.078065 0.000000
v 0.033040 0.073148 0.010735
v 0.033040 0.078065 0.010735
v 0.028106 0.073148 0.020420
v 0.028106 0.078065 0.020420
v 0.020420 0.073148 0.028106
v 0.020420 0.078065 0.028106
v 0.010735 0.073148 0.033040
v 0.010735 0.078065 0.033040
v -0.000000 0.073148 0.034741
v -0.000000 0.078065 0.034741
v -0.010735 0.073148 0.033040
v -0.010735 0.078065 0.033040
v -0.020420 0.073148 0.028106
v -0.020420 0.078065 0.028106
v -0.028106 0.073148 0.020420
v -0.028106 0.078065 0.020420
v -0.033040 0.073148 0.010735
v -0.033040 0.078065 0.010735
v -0.034741 0.073148 -0.000000
v -0.034741 0.078065 -0.000000
v -0.033040 0.073148 -0.010735
v -0.033040 0.078065 -0.010735
v -0.028106 0.073148 -0.020420
v -0.028106 0.078065 -0.020420
v -0.020420 0.073148 -0.028106
v -0.020420 0.078065 -0.028106
v -0.010735 0.073148 -0.033040
v -0.010735 0.078065 -0.033040
vt 1.000000 0.500000
vt 1.000000 1.000000
vt 0.950000 1.000000
vt 0.950000 0.500000
vt 0.900000 1.000000
vt 0.900000 0.500000
vt 0.850000 1.000000
vt 0.850000 0.500000
vt 0.800000 1.000000
vt 0.800000 0.500000
vt 0.750000 1.000000
vt 0.750000 0.500000
vt 0.700000 1.000000
vt 0.700000 0.500000
vt 0.650000 1.000000
vt 0.650000 0.500000
vt 0.600000 1.000000
vt 0.600000 0.500000
vt 0.550000 1.000000
vt 0.550000 0.500000
vt 0.500000 1.000000
vt 0.500000 0.500000
vt 0.450000 1.000000
vt 0.450000 0.500000
vt 0.400000 1.000000
vt 0.400000 0.500000
vt 0.350000 1.000000
vt 0.350000 0.500000
vt 0.300000 1.000000
vt 0.300000 0.500000
vt 0.250000 1.000000
vt 0.250000 0.500000
vt 0.200000 1.000000
vt 0.200000 0.500000
vt 0.150000 1.000000
vt 0.150000 0.500000
vt 0.100000 1.000000
vt 0.100000 0.500000
vt 0.273813 0.323289
vt 0.250000 0.327061
vt 0.226187 0.323289
vt 0.204705 0.312344
vt 0.187656 0.295295
vt 0.176711 0.273813
vt 0.172939 0.250000
vt 0.176711 0.226187
vt 0.187656 0.204705
vt 0.204705 0.187656
vt 0.226187 0.176711
vt 0.250000 0.172939
vt 0.273813 0.176711
vt 0.295295 0.187656
vt 0.312344 0.204705
vt 0.323289 0.226187
vt 0.327061 0.250000
vt 0.323289 0.273813
vt 0.312344 0.295295
vt 0.295295 0.312344
vt 0.050000 1.000000
vt 0.050000 0.500000
vt -0.000000 1.000000
vt -0.000000 0.500000
vt 0.750000 0.327061
vt 0.773813 0.323289
vt 0.795295 0.312344
vt 0.812344 0.295295
vt 0.823290 0.273813
vt 0.827061 0.250000
vt 0.823290 0.226187
vt 0.812344 0.204705
vt 0.795295 0.187656
vt 0.773813 0.176711
vt 0.750000 0.172939
vt 0.726187 0.176711
vt 0.704705 0.187656
vt 0.687656 0.204705
vt 0.676711 0.226187
vt 0.672939 0.250000
vt 0.676711 0.273813
vt 0.687656 0.295295
vt 0.704705 0.312344
vt 0.726187 0.323289
vt 0.808065 0.428707
vt 0.750000 0.437904
vt 0.750000 0.490000
vt 0.824164 0.478254
vt 0.250000 0.437904
vt 0.308065 0.428707
vt 0.324164 0.478254
vt 0.250000 0.490000
vt 0.860447 0.402017
vt 0.891068 0.444164
vt 0.360447 0.402017
vt 0.391068 0.444164
vt 0.902017 0.360447
vt 0.944164 0.391068
vt 0.402017 0.360447
vt 0.444164 0.391068
vt 0.928707 0.308065
vt 0.978254 0.324164
vt 0.428707 0.308065
vt 0.478254 0.324164
vt 0.937904 0.250000
vt 0.990000 0.250000
vt 0.437904 0.250000
vt 0.490000 0.250000
vt 0.928707 0.191935
vt 0.978254 0.175836
vt 0.428707 0.191935
vt 0.478254 0.175836
vt 0.902017 0.139553
vt 0.944164 0.108932
vt 0.402017 0.139553
vt 0.444164 0.108932
vt 0.860447 0.097983
vt 0.891068 0.055836
vt 0.360447 0.097983
vt 0.391068 0.055836
vt 0.808065 0.071293
vt 0.824164 0.021746
vt 0.308065 0.071293
vt 0.324164 0.021746
vt 0.750000 0.062096
vt 0.750000 0.010000
vt 0.250000 0.062096
vt 0.250000 0.010000
vt 0.691935 0.071293
vt 0.675836 0.021746
vt 0.191935 0.071293
vt 0.175836 0.021746
vt 0.639553 0.097983
vt 0.608932 0.055836
vt 0.139553 0.097983
vt 0.108932 0.055836
vt 0.597983 0.139553
vt 0.555836 0.108932
vt 0.097983 0.139553
vt 0.055836 0.108932
vt 0.571293 0.191935
vt 0.521746 0.175836
vt 0.071293 0.191935
vt 0.021746 0.175836
vt 0.562096 0.250000
vt 0.510000 0.250000
vt 0.062096 0.250000
vt 0.010000 0.250000
vt 0.571293 0.308065
vt 0.521746 0.324164
vt 0.071293 0.308065
vt 0.021746 0.324164
vt 0.597983 0.360447
vt 0.555836 0.391068
vt 0.097983 0.360447
vt 0.055836 0.391068
vt 0.639553 0.402017
vt 0.608932 0.444164
vt 0.139553 0.402017
vt 0.108932 0.444164
vt 0.691934 0.428707
vt 0.675836 0.478254
vt 0.191935 0.428707
vt 0.175836 0.478254
vn 0.1564 0.0000 -0.9877
vn 0.4540 0.0000 -0.8910
vn 0.7071 0.0000 -0.7071
vn 0.8910 0.0000 -0.4540
vn 0.9877 0.0000 -0.1564
vn 0.9877 0.0000 0.1564
vn 0.8910 0.0000 0.4540
vn 0.7071 0.0000 0.7071
vn 0.4540 0.0000 0.8910
vn 0.1564 0.0000 0.9877
vn -0.1564 0.0000 0.9877
vn -0.4540 0.0000 0.8910
vn -0.7071 0.0000 0.7071
vn -0.8910 0.0000 0.4540
vn -0.9877 0.0000 0.1564
vn -0.9877 0.0000 -0.1564
vn -0.8910 0.0000 -0.4540
vn -0.7071 0.0000 -0.7071
vn 0.0000 1.0000 -0.0000
vn -0.4540 0.0000 -0.8910
vn -0.1564 0.0000 -0.9877
vn 0.0000 -1.0000 -0.0000
vn -0.0456 -0.9566 0.2879
vn 0.0456 0.9566 -0.2879
vn -0.1323 -0.9566 0.2597
vn 0.1323 0.9566 -0.2597
vn -0.2061 -0.9566 0.2061
vn 0.2061 0.9566 -0.2061
vn -0.2597 -0.9566 0.1323
vn 0.2597 0.9566 -0.1323
vn -0.2879 -0.9566 0.0456
vn 0.2879 0.9566 -0.0456
vn -0.2879 -0.9566 -0.0456
vn 0.2879 0.9566 0.0456
vn -0.2597 -0.9566 -0.1323
vn 0.2597 0.9566 0.1323
vn -0.2061 -0.9566 -0.2061
vn 0.2061 0.9566 0.2061
vn -0.1323 -0.9566 -0.2597
vn 0.1323 0.9566 0.2597
vn -0.0456 -0.9566 -0.2879
vn 0.0456 0.9566 0.2879
vn 0.0456 -0.9566 -0.2879
vn -0.0456 0.9566 0.2879
vn 0.1323 -0.9566 -0.2597
vn -0.1323 0.9566 0.2597
vn 0.2061 -0.9566 -0.2061
vn -0.2061 0.9566 0.2061
vn 0.2597 -0.9566 -0.1323
vn -0.2597 0.9566 0.1323
vn 0.2879 -0.9566 -0.0456
vn -0.2879 0.9566 0.0456
vn 0.2879 -0.9566 0.0456
vn -0.2879 0.9566 -0.0456
vn 0.2597 -0.9566 0.1323
vn -0.2597 0.9566 -0.1323
vn 0.2061 -0.9566 0.2061
vn -0.2061 0.9566 -0.2061
vn 0.1323 -0.9566 0.2597
vn -0.1323 0.9566 -0.2597
vn 0.0456 -0.9566 0.2879
vn -0.0456 0.9566 -0.2879
vn -0.0250 -0.9872 0.1576
vn 0.0250 0.9872 -0.1576
vn -0.0724 -0.9872 0.1422
vn 0.0724 0.9872 -0.1422
vn -0.1128 -0.9872 0.1128
vn 0.1128 0.9872 -0.1128
vn -0.1422 -0.9872 0.0724
vn 0.1422 0.9872 -0.0724
vn -0.1576 -0.9872 0.0250
vn 0.1576 0.9872 -0.0250
vn -0.1576 -0.9872 -0.0250
vn 0.1576 0.9872 0.0250
vn -0.1422 -0.9872 -0.0724
vn 0.1422 0.9872 0.0724
vn -0.1128 -0.9872 -0.1128
vn 0.1128 0.9872 0.1128
vn -0.0724 -0.9872 -0.1422
vn 0.0724 0.9872 0.1422
vn -0.0250 -0.9872 -0.1576
vn 0.0250 0.9872 0.1576
vn 0.0250 -0.9872 -0.1576
vn -0.0250 0.9872 0.1576
vn 0.0724 -0.9872 -0.1422
vn -0.0724 0.9872 0.1422
vn 0.1128 -0.9872 -0.1128
vn -0.1128 0.9872 0.1128
vn 0.1422 -0.9872 -0.0724
vn -0.1422 0.9872 0.0724
vn 0.1576 -0.9872 -0.0250
vn -0.1576 0.9872 0.0250
vn 0.1576 -0.9872 0.0250
vn -0.1576 0.9872 -0.0250
vn 0.1422 -0.9872 0.0724
vn -0.1422 0.9872 -0.0724
vn 0.1128 -0.9872 0.1128
vn -0.1128 0.9872 -0.1128
vn 0.0724 -0.9872 0.1422
vn -0.0724 0.9872 -0.1422
vn 0.0250 -0.9872 0.1576
vn -0.0250 0.9872 -0.1576
usemtl Salami
s off
f 41/1/1 44/2/1 43/3/1 42/4/1
f 42/4/2 43/3/2 46/5/2 45/6/2
f 45/6/3 46/5/3 48/7/3 47/8/3
f 47/8/4 48/7/4 50/9/4 49/10/4
f 49/10/5 50/9/5 52/11/5 51/12/5
f 51/12/6 52/11/6 54/13/6 53/14/6
f 53/14/7 54/13/7 56/15/7 55/16/7
f 55/16/8 56/15/8 58/17/8 57/18/8
f 57/18/9 58/17/9 60/19/9 59/20/9
f 59/20/10 60/19/10 62/21/10 61/22/10
f 61/22/11 62/21/11 64/23/11 63/24/11
f 63/24/12 64/23/12 66/25/12 65/26/12
f 65/26/13 66/25/13 68/27/13 67/28/13
f 67/28/14 68/27/14 70/29/14 69/30/14
f 69/30/15 70/29/15 72/31/15 71/32/15
f 71/32/16 72/31/16 74/33/16 73/34/16
f 73/34/17 74/33/17 76/35/17 75/36/17
f 75/36/18 76/35/18 78/37/18 77/38/18
f 4/39/19 2/40/19 40/41/19 38/42/19 36/43/19 34/44/19 32/45/19 30/46/19 28/47/19 26/48/19 24/49/19 22/50/19 20/51/19 18/52/19 16/53/19 14/54/19 12/55/19 10/56/19 8/57/19 6/58/19
f 77/38/20 78/37/20 80/59/20 79/60/20
f 79/60/21 80/59/21 44/61/21 41/62/21
f 1/63/22 3/64/22 5/65/22 7/66/22 9/67/22 11/68/22 13/69/22 15/70/22 17/71/22 19/72/22 21/73/22 23/74/22 25/75/22 27/76/22 29/77/22 31/78/22 33/79/22 35/80/22 37/81/22 39/82/22
f 82/83/23 81/84/23 41/85/23 42/86/23
f 84/87/24 83/88/24 43/89/24 44/90/24
f 85/91/25 82/83/25 42/86/25 45/92/25
f 83/88/26 86/93/26 46/94/26 43/89/26
f 87/95/27 85/91/27 45/92/27 47/96/27
f 86/93/28 88/97/28 48/98/28 46/94/28
f 89/99/29 87/95/29 47/96/29 49/100/29
f 88/97/30 90/101/30 50/102/30 48/98/30
f 91/103/31 89/99/31 49/100/31 51/104/31
f 90/101/32 92/105/32 52/106/32 50/102/32
f 93/107/33 91/103/33 51/104/33 53/108/33
f 92/105/34 94/109/34 54/110/34 52/106/34
f 95/111/35 93/107/35 53/108/35 55/112/35
f 94/109/36 96/113/36 56/114/36 54/110/36
f 97/115/37 95/111/37 55/112/37 57/116/37
f 96/113/38 98/117/38 58/118/38 56/114/38
f 99/119/39 97/115/39 57/116/39 59/120/39
f 98/117/40 100/121/40 60/122/40 58/118/40
f 101/123/41 99/119/41 59/120/41 61/124/41
f 100/121/42 102/125/42 62/126/42 60/122/42
f 103/127/43 101/123/43 61/124/43 63/128/43
f 102/125/44 104/129/44 64/130/44 62/126/44
f 105/131/45 103/127/45 63/128/45 65/132/45
f 104/129/46 106/133/46 66/134/46 64/130/46
f 107/135/47 105/131/47 65/132/47 67/136/47
f 106/133/48 108/137/48 68/138/48 66/134/48
f 109/139/49 107/135/49 67/136/49 69/140/49
f 108/137/50 110/141/50 70/142/50 68/138/50
f 111/143/51 109/139/51 69/140/51 71/144/51
f 110/141/52 112/145/52 72/146/52 70/142/52
f 113/147/53 111/143/53 71/144/53 73/148/53
f 112/145/54 114/149/54 74/150/54 72/146/54
f 115/151/55 113/147/55 73/148/55 75/152/55
f 114/149/56 116/153/56 76/154/56 74/150/56
f 117/155/57 115/151/57 75/152/57 77/156/57
f 116/153/58 118/157/58 78/158/58 76/154/58
f 119/159/59 117/155/59 77/156/59 79/160/59
f 118/157/60 120/161/60 80/162/60 78/158/60
f 81/84/61 119/159/61 79/160/61 41/85/61
f 120/161/62 84/87/62 44/90/62 80/162/62
f 3/64/63 1/63/63 81/84/63 82/83/63
f 2/40/64 4/39/64 83/88/64 84/87/64
f 5/65/65 3/64/65 82/83/65 85/91/65
f 4/39/66 6/58/66 86/93/66 83/88/66
f 7/66/67 5/65/67 85/91/67 87/95/67
f 6/58/68 8/57/68 88/97/68 86/93/68
f 9/67/69 7/66/69 87/95/69 89/99/69
f 8/57/70 10/56/70 90/101/70 88/97/70
f 11/68/71 9/67/71 89/99/71 91/103/71
f 10/56/72 12/55/72 92/105/72 90/101/72
f 13/69/73 11/68/73 91/103/73 93/107/73
f 12/55/74 14/54/74 94/109/74 92/105/74
f 15/70/75 13/69/75 93/107/75 95/111/75
f 14/54/76 16/53/76 96/113/76 94/109/76
f 17/71/77 15/70/77 95/111/77 97/115/77
f 16/53/78 18/52/78 98/117/78 96/113/78
f 19/72/79 17/71/79 97/115/79 99/119/79
f 18/52/80 20/51/80 100/121/80 98/117/80
f 21/73/81 19/72/81 99/119/81 101/123/81
f 20/51/82 22/50/82 102/125/82 100/121/82
f 23/74/83 21/73/83 101/123/83 103/127/83
f 22/50/84 24/49/84 104/129/84 102/125/84
f 25/75/85 23/74/85 103/127/85 105/131/85
f 24/49/86 26/48/86 106/133/86 104/129/86
f 27/76/87 25/75/87 105/131/87 107/135/87
f 26/48/88 28/47/88 108/137/88 106/133/88
f 29/77/89 27/76/89 107/135/89 109/139/89
f 28/47/90 30/46/90 110/141/90 108/137/90
f 31/78/91 29/77/91 109/139/91 111/143/91
f 30/46/92 32/45/92 112/145/92 110/141/92
f 33/79/93 31/78/93 111/143/93 113/147/93
f 32/45/94 34/44/94 114/149/94 112/145/94
f 35/80/95 33/79/95 113/147/95 115/151/95
f 34/44/96 36/43/96 116/153/96 114/149/96
f 37/81/97 35/80/97 115/151/97 117/155/97
f 36/43/98 38/42/98 118/157/98 116/153/98
f 39/82/99 37/81/99 117/155/99 119/159/99
f 38/42/100 40/41/100 120/161/100 118/157/100
f 1/63/101 39/82/101 119/159/101 81/84/101
f 40/41/102 2/40/102 84/87/102 120/161/102
